<svg width="12" height="12" viewBox="0 0 12 12" fill="none" xmlns="http://www.w3.org/2000/svg">
<circle cx="6" cy="6" r="6" fill="#7D2C1B"/>
<path d="M6.15 5.175C6.564 5.175 6.933 5.253 7.257 5.409C7.587 5.565 7.845 5.79 8.031 6.084C8.217 6.372 8.31 6.705 8.31 7.083C8.31 7.479 8.211 7.827 8.013 8.127C7.821 8.427 7.554 8.661 7.212 8.829C6.876 8.991 6.498 9.072 6.078 9.072C5.232 9.072 4.578 8.799 4.116 8.253C3.66 7.707 3.432 6.933 3.432 5.931C3.432 5.229 3.555 4.632 3.801 4.14C4.053 3.642 4.401 3.267 4.845 3.015C5.295 2.757 5.817 2.628 6.411 2.628C6.717 2.628 7.005 2.661 7.275 2.727C7.545 2.787 7.779 2.877 7.977 2.997L7.635 3.699C7.335 3.501 6.933 3.402 6.429 3.402C5.775 3.402 5.262 3.606 4.89 4.014C4.518 4.416 4.332 5.004 4.332 5.778C4.332 5.874 4.335 5.949 4.341 6.003C4.521 5.733 4.767 5.529 5.079 5.391C5.397 5.247 5.754 5.175 6.15 5.175ZM6.042 8.343C6.456 8.343 6.792 8.232 7.05 8.01C7.308 7.788 7.437 7.491 7.437 7.119C7.437 6.747 7.305 6.453 7.041 6.237C6.783 6.015 6.435 5.904 5.997 5.904C5.715 5.904 5.463 5.958 5.241 6.066C5.025 6.174 4.854 6.321 4.728 6.507C4.608 6.693 4.548 6.9 4.548 7.128C4.548 7.35 4.605 7.554 4.719 7.74C4.839 7.92 5.01 8.067 5.232 8.181C5.46 8.289 5.73 8.343 6.042 8.343Z" fill="white"/>
</svg>
